<?xml version="1.0" encoding="UTF-8"?>
<svg id="svg2" width="1028.7" height="1095.4" version="1.1" xmlns="http://www.w3.org/2000/svg" xmlns:cc="http://creativecommons.org/ns#" xmlns:dc="http://purl.org/dc/elements/1.1/" xmlns:rdf="http://www.w3.org/1999/02/22-rdf-syntax-ns#" xmlns:xlink="http://www.w3.org/1999/xlink">
 <title id="title5194">Exploded diagram of rubber dome over membrane</title>
 <defs id="defs4">
  <linearGradient id="linearGradient5144" x1="401.63" x2="432.25" y1="540.01" y2="486.52" gradientUnits="userSpaceOnUse">
   <stop id="stop6970" stop-color="#1b1b1b" offset="0"/>
   <stop id="stop6972" stop-color="#3a3a3a" offset=".71768"/>
   <stop id="stop6974" stop-color="#101010" offset="1"/>
  </linearGradient>
 </defs>
 <metadata id="metadata7">
  <rdf:RDF>
   <cc:Work rdf:about="">
    <dc:format>image/svg+xml</dc:format>
    <dc:type rdf:resource="http://purl.org/dc/dcmitype/StillImage"/>
    <dc:title>Exploded diagram of rubber dome over membrane</dc:title>
    <cc:license rdf:resource="http://creativecommons.org/publicdomain/zero/1.0/"/>
    <dc:date>2014-04-20</dc:date>
    <dc:creator>
     <cc:Agent>
      <dc:title>Daniel Beardsmore</dc:title>
     </cc:Agent>
    </dc:creator>
    <dc:rights>
     <cc:Agent>
      <dc:title/>
     </cc:Agent>
    </dc:rights>
    <dc:source/>
    <dc:language>en-GB</dc:language>
    <dc:description>Exploded diagram showing the constituent components of a typical rubber dome over membrane computer keyboard</dc:description>
   </cc:Work>
   <cc:License rdf:about="http://creativecommons.org/publicdomain/zero/1.0/">
    <cc:permits rdf:resource="http://creativecommons.org/ns#Reproduction"/>
    <cc:permits rdf:resource="http://creativecommons.org/ns#Distribution"/>
    <cc:permits rdf:resource="http://creativecommons.org/ns#DerivativeWorks"/>
   </cc:License>
  </rdf:RDF>
 </metadata>
 <g id="layer2" transform="translate(-.0038322 45.884)">
  <path id="path2987" d="m0.50492 882.27 245.49 141.74 245.49-141.74v-24.803l-245.49 141.73-245.49-141.73z" fill="#1a1a1a" stroke="#000" stroke-linecap="round" stroke-linejoin="round" stroke-width="1px"/>
  <path id="use2989" d="m0.50492 857.47 245.49 141.74 245.49-141.74-245.49-141.73z" fill="#262626" stroke="#000" stroke-linecap="round" stroke-linejoin="round" stroke-width="1px"/>
  <text id="text3982" x="548.3714" y="924.41229" fill="#000000" font-family="sans-serif" font-size="20px" letter-spacing="0px" word-spacing="0px" style="line-height:0%" xml:space="preserve"><tspan id="tspan3984" x="548.3714" y="924.41229" font-weight="bold" style="line-height:1.25">Lower case</tspan><tspan id="tspan4480" x="548.3714" y="949.41229" style="line-height:1.25">Supports the membrane assembly</tspan></text>
  <path id="path4144" d="m542.79 918.86h-92.451" fill="none" stroke="#000" stroke-width="1px"/>
 </g>
 <g id="layer3" transform="translate(-.0038322 45.884)">
  <path id="use2991" d="m0.50489 832.66 245.49 141.74 245.49-141.74-245.49-141.73z" color="#000000" fill="#f0f0f0" fill-opacity=".18824" stroke="#000" stroke-linejoin="bevel" stroke-width="1px"/>
  <path id="use3011" d="m0.50492 829.12 245.49 141.74 245.49-141.74-245.49-141.73z" color="#000000" fill="#f0f0f0" fill-opacity=".18824" stroke="#000" stroke-linejoin="bevel" stroke-width="1px"/>
  <path id="path3950" d="m292.02 997.43 24.832 14.337h225.93" fill="none" stroke="#000" stroke-width="1px"/>
  <path id="use3952" d="m288.95 999.2 27.9 16.108h225.93" fill="none" stroke="#000" stroke-width="1px"/>
  <path id="path3954" d="m532.13 1019.4-3.78 9.1258h8.4175z"/>
  <use id="use3956" transform="matrix(1 0 0 -1 0 2026.6)" width="744.09448" height="1052.3622" xlink:href="#path3954"/>
  <text id="text3958" x="548.42999" y="1020.3307" fill="#000000" font-family="sans-serif" font-size="20px" letter-spacing="0px" word-spacing="0px" style="line-height:0%" xml:space="preserve"><tspan id="tspan3960" x="548.42999" y="1020.3307" style="line-height:1.25"><tspan id="tspan4034" font-family="sans-serif" font-weight="bold">ca. 0.06–0.09 mm</tspan> membrane thickness</tspan><tspan id="tspan4028" x="548.42999" y="1045.3307" style="line-height:1.25">(equivalent to a typical sheet of paper)</tspan></text>
  <text id="text3970" x="548.80109" y="835.45001" fill="#000000" font-family="sans-serif" font-size="20px" letter-spacing="0px" word-spacing="0px" style="line-height:0%" xml:space="preserve"><tspan id="tspan3972" x="548.80109" y="835.45001" font-weight="bold" style="line-height:1.25">Bottom membrane layer</tspan><tspan id="tspan3974" x="548.80109" y="860.45001" style="line-height:1.25">Traces and contact pads on upper surface</tspan></text>
  <path id="path4123" d="m298.26 717.56-43.031 24.844c-2.3845-1.713-5.6029-2.7812-9.1875-2.7812-7.3144 0-13.25 4.3648-13.25 9.7812 0 1.786 0.65481 3.4639 1.7812 4.9062l-117.44 67.812c-2.385-1.6961-5.6157-2.75-9.1875-2.75-3.5824 0-6.8318 1.045-9.2187 2.75l-43.062-24.844-3 1.7188 43.812 25.281c-1.1283 1.4415-1.8125 3.1213-1.8125 4.9062 0 1.7707 0.66955 3.4101 1.7812 4.8438l-43.719 25.25 3 1.75 42.969-24.812c2.3902 1.7199 5.65 2.75 9.25 2.75 3.5894 0 6.8305-1.039 9.2188-2.75l117.41 67.781c-0.8094 1.0191-1.3582 2.1637-1.625 3.375h-96.938l5.1875 3h91.719c0.92931 4.7418 6.4182 8.375 13.094 8.375 3.6183 0 6.8879-1.0771 9.2812-2.8125l42.906 24.781 3-1.7188-43.656-25.219c1.0952-1.4257 1.75-3.056 1.75-4.8125 0-1.8213-0.7037-3.5389-1.875-5l117.53-67.75c2.0418 1.432 4.675 2.414 7.625 2.6562v8.875l-45.281 26.125-0.75 0.4375v0.875 24.812 0.84375l0.75 0.4375 14.625 8.4375 2.9688-1.7188-15.344-8.875v-23.062l45.281-26.156 0.75-0.4375v-0.84375-9.7812c6.6124-0.55611 11.75-4.6845 11.75-9.7188 0-1.7486-0.6327-3.3912-1.7188-4.8125l43.781-25.25-3-1.75-43.031 24.812c-2.3932-1.7348-5.6636-2.8125-9.2812-2.8125-7.3268 0-13.281 4.3993-13.281 9.8125 0 1.807 0.68935 3.484 1.8438 4.9375l-117.53 67.781c-2.376-1.6578-5.5677-2.6875-9.0938-2.6875-3.5436 0-6.7454 1.0462-9.125 2.7188l-117.47-67.812c1.1283-1.4415 1.7812-3.0901 1.7812-4.875 0-1.7928-0.64365-3.4917-1.7812-4.9375l117.41-67.781c2.3832 1.707 5.6413 2.75 9.2188 2.75 7.3144 0 13.25-4.396 13.25-9.8125 0-1.786-0.68606-3.4327-1.8125-4.875l43.75-25.25z" color="#000000" fill="#fff" stroke="#000" stroke-width="1px"/>
  <path id="path3894" d="m465.42 814.09-115.84 66.875-0.75 0.4375v0.875 10.625 0.875l0.75 0.40625 14.594 8.4375 3-1.7188-15.344-8.875v-8.9062l116.62-67.312z" color="#000000" fill="#fff" stroke="#000" stroke-width="1px" style="text-decoration-line:none;text-indent:0;text-transform:none"/>
  <path id="path4142" d="m542.79 829.86h-41.578" fill="none" stroke="#000" stroke-width="1px"/>
  <path id="path4851" d="m0.50492 829.12v3.5433l245.49 141.73v-3.5433z" color="#000000" fill="#f0f0f0" fill-opacity=".18824" stroke="#000" stroke-linecap="square" stroke-linejoin="round"/>
  <path id="path4853" d="m245.99 970.86v3.5433l245.49-141.73v-3.5433z" color="#000000" fill="#f0f0f0" fill-opacity=".18824" stroke="#000" stroke-linecap="square" stroke-linejoin="round"/>
  <path id="path4888" d="m247.53 971.74 44.495 25.689" fill="none" stroke="#fff" stroke-linecap="round" stroke-width="1px"/>
  <path id="path4890" d="m247.53 975.28 41.426 23.917" fill="none" stroke="#fff" stroke-linecap="round" stroke-width="1px"/>
 </g>
 <g id="layer4" transform="translate(-.0038322 45.884)">
  <text id="text3994" x="548.79999" y="736.43628" fill="#000000" font-family="sans-serif" font-size="20px" letter-spacing="0px" word-spacing="0px" style="line-height:0%" xml:space="preserve"><tspan id="tspan3996" x="548.79999" y="736.43628" font-weight="bold" style="line-height:1.25">Centre membrane layer</tspan><tspan id="tspan4150" x="548.79999" y="761.43628" style="line-height:1.25">The top layer is pressed against the bottom</tspan><tspan id="tspan4152" x="548.79999" y="786.43628" style="line-height:1.25">layer through the holes in the centre layer </tspan></text>
  <path id="use2995" d="m245.98 591.72-245.47 141.72 245.47 141.75 245.5-141.75zm0 38.969c17.796 0 32.25 10.673 32.25 23.812s-14.454 23.781-32.25 23.781-32.219-10.641-32.219-23.781 14.423-23.812 32.219-23.812zm138.09 78.844c17.796 0 32.219 10.666 32.219 23.812s-14.423 23.781-32.219 23.781-32.219-10.635-32.219-23.781 14.423-23.812 32.219-23.812zm-276.12 0.0312c17.796 0 32.219 10.666 32.219 23.812s-14.423 23.812-32.219 23.812c-17.796 0-32.219-10.666-32.219-23.812s14.423-23.812 32.219-23.812zm138.06 79.812c17.796 0 32.219 10.666 32.219 23.812s-14.423 23.812-32.219 23.812-32.219-10.666-32.219-23.812 14.423-23.812 32.219-23.812z" fill="#f0f0f0" fill-opacity=".18824" stroke="#000" stroke-linejoin="bevel"/>
  <path id="use2997" d="m245.98 588.19-245.47 141.72 245.47 141.75 245.5-141.75zm0 38.969c17.796 0 32.25 10.673 32.25 23.812s-14.454 23.781-32.25 23.781-32.219-10.641-32.219-23.781 14.423-23.812 32.219-23.812zm-138.03 78.906c17.796 0 32.219 10.666 32.219 23.812s-14.423 23.812-32.219 23.812c-17.796 0-32.219-10.666-32.219-23.812s14.423-23.812 32.219-23.812zm276.12 0.0625c17.796 0 32.219 10.635 32.219 23.781s-14.423 23.812-32.219 23.812-32.219-10.666-32.219-23.812 14.423-23.781 32.219-23.781zm-138.06 79.781c17.796 0 32.219 10.666 32.219 23.812s-14.423 23.812-32.219 23.812-32.219-10.666-32.219-23.812 14.423-23.812 32.219-23.812z" fill="#f0f0f0" fill-opacity=".18824" stroke="#000" stroke-linejoin="bevel"/>
  <path id="path4140" d="m542.8 730.86h-41.59" fill="none" stroke="#000" stroke-width="1px"/>
  <path id="path4855" d="m491.48 729.91v3.5433l-245.49 141.73v-3.5433z" color="#000000" fill="#f0f0f0" fill-opacity=".18824" stroke="#000" stroke-linecap="square" stroke-linejoin="round"/>
  <path id="path4857" d="m245.99 875.19v-3.5433l-245.49-141.73v3.5433z" color="#000000" fill="#f0f0f0" fill-opacity=".18824" stroke="#000" stroke-linecap="square" stroke-linejoin="round"/>
 </g>
 <g id="layer5" transform="translate(-.0038322 45.884)">
  <text id="text3962" x="548.83905" y="637.41797" fill="#000000" font-family="sans-serif" font-size="20px" letter-spacing="0px" word-spacing="0px" style="line-height:0%" xml:space="preserve"><tspan id="tspan3964" x="548.83905" y="637.41797" font-weight="bold" style="line-height:1.25">Top membrane layer</tspan><tspan id="tspan3976" x="548.83905" y="662.41797" style="line-height:1.25">Traces and contact pads on lower surface</tspan></text>
  <path id="path4193" d="m193.82 522.61-3.0625 1.7812 43.781 25.25c-1.1264 1.4423-1.7812 3.089-1.7812 4.875 0 1.7718 0.64018 3.4405 1.75 4.875l-117.34 67.75c-2.3883-1.711-5.6293-2.7812-9.2188-2.7812-6.647 0-12.129 3.6316-13.094 8.3438h-29.469l-31.156-17.969-3 1.7188 32.969 19.062 0.34375 0.1875h0.40625 29.906c0.99887 4.6826 6.4752 8.25 13.094 8.25 7.3268 0 13.25-4.368 13.25-9.7812 0-1.7707-0.6383-3.4414-1.75-4.875l117.34-67.75c2.3845 1.713 5.6029 2.7812 9.1875 2.7812 3.5672 0 6.8062-1.0516 9.1875-2.75l15.375 8.875h49.094l30.688-17.719-3.0625-1.7812-27.625 15.969h-49.094l-13.031-7.5312c1.1024-1.431 1.7188-3.1096 1.7188-4.875 0-1.7939-0.64557-3.4596-1.7812-4.9062l43.75-25.25-3-1.7188-43.031 24.844c-2.3813-1.6984-5.6203-2.75-9.1875-2.75-3.5498 0-6.747 1.035-9.125 2.7188zm224 69.062-123.47 71.312-0.75 0.40625v0.875 20.406l-38.469 22.188c-2.3796-1.6725-5.5814-2.7188-9.125-2.7188-6.6043 0-12.078 3.5822-13.094 8.25h-47.844l-160.03-92.344-2.9688 1.7188 161.81 93.406 0.34375 0.21875h0.40625 48.281c0.94687 4.727 6.4325 8.3438 13.094 8.3438 7.3268 0 13.281-4.368 13.281-9.7812 0-1.807-0.68935-3.5153-1.8438-4.9688l38.406-22.156 0.75-0.4375v-0.875-20.375l124.22-71.719zm18.344 10.594-42.969 24.812c-2.3796-1.6725-5.5814-2.6875-9.125-2.6875-7.3268 0-13.281 4.368-13.281 9.7812 0 1.7564 0.65485 3.418 1.75 4.8438l-69 39.844-0.75 0.4375v0.84375 31.031l-38.812 22.406h-91.375l4 2.3125 1.1875 0.6875h86.625 0.375l0.375-0.21875 39.875-23.031 0.75-0.40625v-0.875-31.031l69-39.844c2.3932 1.7348 5.6636 2.8125 9.2812 2.8125s6.888-1.0777 9.2812-2.8125l43.031 24.844 3-1.7188-43.781-25.281c1.0952-1.4257 1.7188-3.0873 1.7188-4.8438 0-1.807-0.6581-3.484-1.8125-4.9375l43.656-25.219-1.7812-1.0312zm-248.16 140.22 5.2188 3h105.53l5.1875-3zm15.312 8.8438 5.2188 3h74.875l3.4688-2 1.75-1z" color="#000000" fill="#fff" stroke="#000" stroke-width="1px"/>
  <path id="use2999" d="m0.5038 634.23 245.49 141.74 245.49-141.74-245.49-141.73z" color="#000000" fill="#f0f0f0" fill-opacity=".18824" stroke="#000" stroke-linejoin="bevel" stroke-width="1px"/>
  <path id="path4462" d="m245.99 488.96v3.5433" fill="none" stroke="#000" stroke-linecap="round" stroke-width="1px"/>
  <path id="use3001" d="m0.50403 630.78 245.49 141.74 245.49-141.74-245.49-141.73z" color="#000000" fill="#f0f0f0" fill-opacity=".18824" stroke="#000" stroke-linejoin="bevel" stroke-width="1px"/>
  <path id="path4138" d="m542.79 631.86h-41.577" fill="none" stroke="#000" stroke-width="1px"/>
  <path id="path4859" d="m491.48 630.69v3.5433l-245.49 141.73v-3.5433z" color="#000000" fill="#f0f0f0" fill-opacity=".18824" stroke="#000" stroke-linecap="square" stroke-linejoin="round"/>
  <path id="path4861" d="m245.99 772.43v3.5433l-245.49-141.73v-3.5433z" color="#000000" fill="#f0f0f0" fill-opacity=".18824" stroke="#000" stroke-linecap="square" stroke-linejoin="round"/>
 </g>
 <g id="layer6" transform="translate(-.0038322 45.884)" opacity=".94">
  <rect id="rect5232" transform="matrix(.8661 .49988 -.8661 .49988 0 0)" x="539.04" y="255.01" width="283.49" height="283.49" rx="17.718" ry="17.718" color="#000000" fill="#fff" fill-opacity=".69681"/>
  <path id="rect4052" transform="translate(0 -46.638)" d="m482.53 585.09c-0.0807-3.1395-2.1753-6.2816-6.3438-8.6875l-214.84-123.97c-4.2507-2.4533-9.7964-3.6875-15.344-3.6875s-11.093 1.2342-15.344 3.6875l-214.84 123.97c-4.1694 2.4064-6.2953 5.5472-6.375 8.6875" color="#000000" fill="#fff" fill-opacity=".69681" stroke="#000" stroke-width="1.0026"/>
  <rect id="use4054" transform="matrix(.86609 .49989 -.86609 .49989 0 0)" x="521.24" y="237.21" width="283.48" height="283.48" rx="17.718" ry="17.718" color="#000000" fill="#fff" fill-opacity=".69681"/>
  <path id="rect4894" d="m482.54 520.86c0 3.2017-2.1244 6.3904-6.375 8.8438l-214.84 124c-8.5011 4.9067-22.186 4.9067-30.688 0l-214.81-124c-4.2506-2.4533-6.375-5.642-6.375-8.8438v17.781c0 3.2017 2.1243 6.3904 6.375 8.8438l214.81 124c8.5014 4.9067 22.186 4.9067 30.688 0l214.84-124c4.2507-2.4533 6.375-5.642 6.375-8.8438z" color="#000000" fill="#fff" fill-opacity=".69681" stroke="#000" stroke-width="1.0026"/>
  <path id="rect5240" transform="translate(0 -46.638)" d="m482.53 567.44c-0.0269-3.1813-2.1515-6.3748-6.375-8.8125l-214.81-124c-4.2506-2.4533-9.7966-3.6562-15.344-3.6562s-11.093 1.2029-15.344 3.6562l-214.84 124c-4.2235 2.4377-6.3481 5.6312-6.375 8.8125" color="#000000" fill="none" stroke="#000" stroke-width="1.0026"/>
  <text id="text3998" x="548.79999" y="504.15314" fill="#000000" font-family="sans-serif" font-size="20px" letter-spacing="0px" word-spacing="0px" style="line-height:0%" xml:space="preserve"><tspan id="tspan4010" x="548.79999" y="504.15314" font-weight="bold" style="line-height:1.25">Rubber domes</tspan><tspan id="tspan4014" x="548.79999" y="529.15314" style="line-height:1.25">Typically formed from a single rubber sheet,</tspan><tspan id="tspan4156" x="548.79999" y="554.15314" style="line-height:1.25">in the region of 0.6 mm thick</tspan></text>
  <g id="g4445" transform="translate(-122.16 339)" stroke="#000">
   <path id="path4084" d="m336.04 223.81c-3.5051 3.6667-7.4699 7.7934-9.8751 11.205-3.5264 5.0662-5.263 10.622-5.2232 16.155v10.406 0.0312c0.0228 19.287 21.197 34.906 47.312 34.906 26.129 0 47.312-15.633 47.312-34.938v-10.188c0.0875-5.6365-1.6623-11.276-5.2208-16.388-2.4422-3.5088-6.7022-7.8491-9.8729-11.192v-4.6696c0-13.147-14.423-23.812-32.219-23.812l-4.7e-4 5e-5c-17.796 0-32.219 10.666-32.219 23.812z" color="#000000" fill="#fff" fill-opacity=".75294" stroke-width="1px"/>
   <path id="path4233" transform="matrix(.8315 0 0 .61423 249.16 -213.65)" d="m200.13 756.45a56.899 56.899 0 0 1-28.449 49.276 56.899 56.899 0 0 1-56.899 0 56.899 56.899 0 0 1-28.449-49.276" color="#000000" fill="none" stroke-width="1.3993px"/>
   <path id="path4262" d="m400.48 223.81 4.5e-4 5.9966c9.9e-4 13.141-14.457 23.789-32.253 23.776-17.784-0.0128-32.191-10.667-32.191-23.787v-6.0044" fill="none" stroke-width="1px"/>
   <path id="path4243" transform="matrix(.71687 0 0 .52959 268.01 -181.39)" d="m184.79 756.27a44.948 44.948 0 0 1-22.474 38.926 44.948 44.948 0 0 1-44.948 0 44.948 44.948 0 0 1-22.474-38.926" color="#000000" fill="none" stroke-width="1.623px"/>
   <circle id="path4245" transform="matrix(.4649 0 0 .34244 303.24 -39.848)" cx="139.84" cy="756.27" r="44.948" color="#000000" fill="none" stroke-width="2.5063px"/>
   <path id="path4247" transform="matrix(.4649 0 0 .34244 303.24 -29.198)" d="m97.663 740.73a44.948 44.948 0 0 1 42.136-29.407 44.948 44.948 0 0 1 42.188 29.332" color="#000000" fill="none" stroke-width="2.5063px"/>
  </g>
  <path id="path4136" d="m543.46 497.86h-71.561" fill="none" stroke="#000"/>
  <g id="g4453" transform="translate(-260.18 248.74)" stroke="#000">
   <path id="path4455" d="m336.04 234.45c-3.5051 3.6667-7.4699 7.7934-9.8751 11.205-3.5264 5.0662-5.263 10.622-5.2232 16.155v10.406 0.0312c0.0228 19.287 21.197 34.906 47.312 34.906 26.129 0 47.312-15.633 47.312-34.938v-10.188c0.0875-5.6365-1.6623-11.276-5.2208-16.388-2.4422-3.5088-6.7022-7.8491-9.8729-11.192v-4.6696c0-13.147-14.423-23.812-32.219-23.812l-4.7e-4 5e-5c-17.796 0-32.219 10.666-32.219 23.812z" color="#000000" fill="#fff" fill-opacity=".75294" stroke-width="1px"/>
   <path id="path4457" transform="matrix(.8315 0 0 .61423 249.16 -203.01)" d="m200.13 756.45a56.899 56.899 0 0 1-28.449 49.276 56.899 56.899 0 0 1-56.899 0 56.899 56.899 0 0 1-28.449-49.276" color="#000000" fill="none" stroke-width="1.3993px"/>
   <path id="path4459" d="m400.48 234.45 4.5e-4 5.9966c9.9e-4 13.141-14.457 23.789-32.253 23.776-17.784-0.0128-32.191-10.667-32.191-23.787v-6.0044" fill="none" stroke-width="1px"/>
   <path id="path4461" transform="matrix(.71687 0 0 .52959 268.01 -170.75)" d="m184.79 756.27a44.948 44.948 0 0 1-22.474 38.926 44.948 44.948 0 0 1-44.948 0 44.948 44.948 0 0 1-22.474-38.926" color="#000000" fill="none" stroke-width="1.623px"/>
   <circle id="path4463" transform="matrix(.4649 0 0 .34244 303.24 -29.207)" cx="139.84" cy="756.27" r="44.948" color="#000000" fill="none" stroke-width="2.5063px"/>
   <path id="path4465" transform="matrix(.4649 0 0 .34244 303.24 -18.557)" d="m97.663 740.73a44.948 44.948 0 0 1 42.136-29.407 44.948 44.948 0 0 1 42.188 29.332" color="#000000" fill="none" stroke-width="2.5063px"/>
  </g>
  <g id="g4467" transform="translate(16.052 248.83)" stroke="#000">
   <path id="path4469" d="m336.04 234.45c-3.5051 3.6667-7.4699 7.7934-9.8751 11.205-3.5264 5.0662-5.263 10.622-5.2232 16.155v10.406 0.0312c0.0228 19.287 21.197 34.906 47.312 34.906 26.129 0 47.312-15.633 47.312-34.938v-10.188c0.0875-5.6365-1.6623-11.276-5.2208-16.388-2.4422-3.5088-6.7022-7.8491-9.8729-11.192v-4.6696c0-13.147-14.423-23.812-32.219-23.812l-4.7e-4 5e-5c-17.796 0-32.219 10.666-32.219 23.812z" color="#000000" fill="#fff" fill-opacity=".75294" stroke-width="1px"/>
   <path id="path4471" transform="matrix(.8315 0 0 .61423 249.16 -203.01)" d="m200.13 756.45a56.899 56.899 0 0 1-28.449 49.276 56.899 56.899 0 0 1-56.899 0 56.899 56.899 0 0 1-28.449-49.276" color="#000000" fill="none" stroke-width="1.3993px"/>
   <path id="path4473" d="m400.48 234.45 4.5e-4 5.9966c9.9e-4 13.141-14.457 23.789-32.253 23.776-17.784-0.0128-32.191-10.667-32.191-23.787v-6.0044" fill="none" stroke-width="1px"/>
   <path id="path4475" transform="matrix(.71687 0 0 .52959 268.01 -170.75)" d="m184.79 756.27a44.948 44.948 0 0 1-22.474 38.926 44.948 44.948 0 0 1-44.948 0 44.948 44.948 0 0 1-22.474-38.926" color="#000000" fill="none" stroke-width="1.623px"/>
   <circle id="path4477" transform="matrix(.4649 0 0 .34244 303.24 -29.207)" cx="139.84" cy="756.27" r="44.948" color="#000000" fill="none" stroke-width="2.5063px"/>
   <path id="path4479" transform="matrix(.4649 0 0 .34244 303.24 -18.557)" d="m97.663 740.73a44.948 44.948 0 0 1 42.136-29.407 44.948 44.948 0 0 1 42.188 29.332" color="#000000" fill="none" stroke-width="2.5063px"/>
  </g>
  <g id="g4353" transform="translate(-122.16 168.72)" stroke="#000">
   <path id="path4355" d="m336.04 234.45c-3.5051 3.6667-7.4699 7.7934-9.8751 11.205-3.5264 5.0662-5.263 10.622-5.2232 16.155v10.406 0.0312c0.0228 19.287 21.197 34.906 47.312 34.906 26.129 0 47.312-15.633 47.312-34.938v-10.188c0.0875-5.6365-1.6623-11.276-5.2208-16.388-2.4422-3.5088-6.7022-7.8491-9.8729-11.192v-4.6696c0-13.147-14.423-23.812-32.219-23.812l-4.7e-4 5e-5c-17.796 0-32.219 10.666-32.219 23.812z" color="#000000" fill="#fff" fill-opacity=".75294" stroke-width="1px"/>
   <path id="path4357" transform="matrix(.8315 0 0 .61423 249.16 -203.01)" d="m200.13 756.45a56.899 56.899 0 0 1-28.449 49.276 56.899 56.899 0 0 1-56.899 0 56.899 56.899 0 0 1-28.449-49.276" color="#000000" fill="none" stroke-width="1.3993px"/>
   <path id="path4359" d="m400.48 234.45 4.5e-4 5.9966c9.9e-4 13.141-14.457 23.789-32.253 23.776-17.784-0.0128-32.191-10.667-32.191-23.787v-6.0044" fill="none" stroke-width="1px"/>
   <path id="path4361" transform="matrix(.71687 0 0 .52959 268.01 -170.75)" d="m184.79 756.27a44.948 44.948 0 0 1-22.474 38.926 44.948 44.948 0 0 1-44.948 0 44.948 44.948 0 0 1-22.474-38.926" color="#000000" fill="none" stroke-width="1.623px"/>
   <circle id="path4363" transform="matrix(.4649 0 0 .34244 303.24 -29.207)" cx="139.84" cy="756.27" r="44.948" color="#000000" fill="none" stroke-width="2.5063px"/>
   <path id="path4365" transform="matrix(.4649 0 0 .34244 303.24 -18.557)" d="m97.663 740.73a44.948 44.948 0 0 1 42.136-29.407 44.948 44.948 0 0 1 42.188 29.332" color="#000000" fill="none" stroke-width="2.5063px"/>
  </g>
 </g>
 <g id="layer7" transform="translate(-.0038322 45.884)">
  <text id="text3966" x="548.79999" y="367.15314" fill="#000000" font-family="sans-serif" font-size="20px" letter-spacing="0px" word-spacing="0px" style="line-height:0%" xml:space="preserve"><tspan id="tspan3986" x="548.79999" y="367.15314" font-weight="bold" style="line-height:1.25">Upper case</tspan><tspan id="tspan3992" x="548.79999" y="392.15314" style="line-height:1.25">Typically contains slider guide shafts as</tspan><tspan id="tspan5148" x="548.79999" y="417.15314" style="line-height:1.25">part of the moulding</tspan></text>
  <path id="use4601" d="m245.97 230.28-245.47 141.75 245.47 141.75 245.5-141.75zm9.2246 21.278 46.043 26.587-58.312 33.656-52.156-30.125 52.151-30.119c3.0686-1.7716 9.2058-1.7716 12.274 0zm-138.09 79.724 46.019 26.582-58.312 33.656-52.156-30.125 52.175-30.113c3.0686-1.7716 9.2058-1.7716 12.274 0zm276.17 0 46.05 26.582-58.312 33.656-52.156-30.125 52.144-30.113c3.0686-1.7716 9.2058-1.7716 12.274 0zm-138.09 79.724 46.043 26.576-58.312 33.656-52.156-30.094 52.151-30.139c3.0686-1.7716 9.2058-1.7716 12.274 0z" fill="#080808" stroke="#000" stroke-linecap="round" stroke-linejoin="round" stroke-width="1px"/>
  <path id="path4548" d="m245.98 205.49-245.47 141.75 245.47 141.75 245.5-141.75zm3.0938 30.125 52.156 30.125-58.312 33.656-52.156-30.125zm-138.09 79.719 52.156 30.125-58.312 33.656-52.156-30.125zm276.16 0 52.188 30.125-58.312 33.656-52.156-30.125zm-138.06 79.719 52.156 30.125-58.312 33.656-52.156-30.094z" fill="#303030" stroke="#000" stroke-linecap="round" stroke-linejoin="round" stroke-width="1px"/>
  <path id="path4645" d="m0.50383 372.03 245.49 141.74 245.49-141.74v-24.803l-245.49 141.73-245.49-141.73z" fill="#1a1a1a" stroke="#000" stroke-linecap="round" stroke-linejoin="round" stroke-width="1px"/>
  <path id="path4985" d="m543.44 360.85h-42.234" fill="none" stroke="#000"/>
 </g>
 <g id="layer9" transform="translate(-.0038322 45.884)" stroke="#000">
  <path id="path4517" d="m190.75 386.21 58.303-33.661v42.52l-58.303 33.661z" fill="#1a1a1a" stroke-linejoin="bevel" stroke-width="1px"/>
  <path id="path4509" d="m265.93 353.44v21.26l-7.6715 11.516v-28.346z" fill="#1a1a1a" stroke-linejoin="bevel" stroke-width="1px"/>
  <path id="path4511" d="m249.05 352.55v42.52l52.166 30.118v-42.52l-9.2058-5.315v28.346l-33.755-19.488v-28.346z" fill="#1a1a1a" stroke-linejoin="bevel" stroke-width="1px"/>
  <path id="path4513" d="m265.93 374.7 26.083 15.059v15.945l-33.755-19.488z" fill="#1f1f1f" stroke-linejoin="bevel" stroke-width="1px"/>
  <path id="path4499" d="m242.92 347.24-61.372 35.433c-3.0784 1.7699-3.0784 5.3061 0 7.0866l10.74 6.2008 7.6699-4.4419-9.2188-5.3125 58.312-33.656 9.2188 5.3125 7.6639-4.4215-10.74-6.2008c-3.0823-1.7594-9.2126-1.7594-12.274 0zm56.769 25.689-7.6996 4.4333 9.2188 5.3125-58.281 33.656-9.2188-5.3125-7.6654 4.4301 10.74 6.2008c3.0808 1.7679 9.2111 1.7679 12.274 0l61.372-35.433c3.0769-1.7613 3.0769-5.3288 0-7.0866z" fill="#303030" stroke-linejoin="bevel" stroke-width="1px"/>
  <path id="path4766" d="m192.28 417.22 7.6715 2.6575 33.755 19.488-7.6715-2.6575z" fill="#4a4a4a" stroke-width="1px"/>
  <path id="path4515" d="m199.95 391.53v28.346l-7.6715-2.6575v-21.26z" fill="#1a1a1a" stroke-linejoin="bevel" stroke-width="1px"/>
  <path id="path4508" d="m226.04 436.71v-21.26l10.74 6.2008c3.0808 1.7679 9.2111 1.7679 12.274 0l61.372-35.433c1.537-0.87986 2.3063-2.2104 2.3077-3.5409l-9.3e-4 42.596c-0.0303 1.3048-0.79918 2.6014-2.3068 3.4644l-61.372 35.433c-3.0632 1.7679-9.1936 1.7679-12.274 0l-55.235-31.89c-1.5355-0.88811-2.3051-2.213-2.3088-3.5377l1.3e-4 -42.56c-0.0119 1.338 0.75768 2.6807 2.3087 3.5778l10.74 6.2008v21.26l33.755 19.488" fill="#1a1a1a" stroke-linejoin="bevel" stroke-width="1px"/>
  <path id="use4513" d="m319.86 413.61c0.3693 2.19-0.89631 4.4656-3.8125 6.1562l-63.812 37c-5.1844 3.0056-13.522 3.0162-18.719 0.0312l-57.844-33.219c-2.9229-1.679-4.2043-3.9335-3.8438-6.125l-1.9062 10.75c-8e-3 0.0422-0.0243 0.0828-0.0312 0.125v0.0625c-0.32734 2.1727 0.94779 4.3988 3.8438 6.0625l59.687 34.312c5.1962 2.9852 13.566 2.9745 18.75-0.0312l65.812-38.156c2.9022-1.6826 4.1644-3.9446 3.8125-6.125v-0.0312c-4e-3 -0.0224-0.0271-0.0401-0.0312-0.0625l-1.9062-10.75z" color="#000000" fill="#1a1a1a" stroke-linecap="round" stroke-linejoin="round" stroke-width=".75"/>
  <path id="rect4522" d="m179.23 418.05c0.0119 1.3193 0.78528 2.6479 2.3125 3.5312l10.75 6.2188 33.75 19.469 10.719 6.2187c3.081 1.7678 9.218 1.7679 12.281-1e-5l61.375-35.437c1.5146-0.86695 2.2889-2.1891 2.3125-3.5l-0.0142-7.4976 3.3084 1.9005c5.1963 2.985 5.2058 7.8077 0.0215 10.813l-63.808 36.992c-5.1844 3.0056-13.541 3.0222-18.738 0.0373l-57.835-33.223c-5.1963-2.985-5.2058-7.8077-0.0215-10.813l3.5809-2.076z" color="#000000" fill="#303030" stroke-linecap="round" stroke-linejoin="round" stroke-width=".75"/>
  <path id="path4791" d="m328.84 306.48 58.303-33.661v42.52l-58.303 33.661z" fill="#1a1a1a" stroke-linejoin="bevel" stroke-width="1px"/>
  <path id="path4793" d="m404.02 273.71v21.26l-7.6715 11.516v-28.346z" fill="#1a1a1a" stroke-linejoin="bevel" stroke-width="1px"/>
  <path id="path4795" d="m387.15 272.82v42.52l52.166 30.118v-42.52l-9.2058-5.315v28.346l-33.755-19.488v-28.346z" fill="#1a1a1a" stroke-linejoin="bevel" stroke-width="1px"/>
  <path id="path4797" d="m404.02 294.97 26.083 15.059v15.945l-33.755-19.488z" fill="#1f1f1f" stroke-linejoin="bevel" stroke-width="1px"/>
  <path id="path4799" d="m381.01 267.51-61.372 35.433c-3.0784 1.7699-3.0784 5.3061 0 7.0866l10.74 6.2008 7.6699-4.4419-9.2188-5.3125 58.312-33.656 9.2188 5.3125 7.6639-4.4215-10.74-6.2008c-3.0823-1.7594-9.2126-1.7594-12.274 0zm56.769 25.689-7.6996 4.4333 9.2188 5.3125-58.281 33.656-9.2188-5.3125-7.6654 4.4301 10.74 6.2008c3.0808 1.7679 9.2111 1.7679 12.274 0l61.372-35.433c3.0769-1.7613 3.0769-5.3288 0-7.0866z" fill="#303030" stroke-linejoin="bevel" stroke-width="1px"/>
  <path id="path4801" d="m330.38 337.49 7.6715 2.6575 33.755 19.488-7.6715-2.6575z" fill="#4a4a4a" stroke-width="1px"/>
  <path id="path4803" d="m338.05 311.8v28.346l-7.6715-2.6575v-21.26z" fill="#1a1a1a" stroke-linejoin="bevel" stroke-width="1px"/>
  <path id="path4805" d="m364.13 356.97v-21.26l10.74 6.2008c3.0808 1.7679 9.2111 1.7679 12.274 0l61.372-35.433c1.537-0.87986 2.3063-2.2104 2.3077-3.5409l-9.3e-4 42.596c-0.0303 1.3048-0.79918 2.6014-2.3068 3.4644l-61.372 35.433c-3.0632 1.7679-9.1936 1.7679-12.274 0l-55.235-31.89c-1.5355-0.88811-2.3051-2.213-2.3088-3.5377l1.3e-4 -42.56c-0.0119 1.338 0.75768 2.6807 2.3087 3.5778l10.74 6.2008v21.26l33.755 19.488" fill="#1a1a1a" stroke-linejoin="bevel" stroke-width="1px"/>
  <path id="path4807" d="m457.95 333.88c0.3693 2.19-0.89631 4.4656-3.8125 6.1562l-63.812 37c-5.1844 3.0056-13.522 3.0162-18.719 0.0312l-57.844-33.219c-2.9229-1.679-4.2043-3.9335-3.8438-6.125l-1.9062 10.75c-8e-3 0.0422-0.0243 0.0828-0.0312 0.125v0.0625c-0.32734 2.1727 0.94779 4.3988 3.8438 6.0625l59.687 34.312c5.1962 2.9852 13.566 2.9745 18.75-0.0312l65.812-38.156c2.9022-1.6826 4.1644-3.9446 3.8125-6.125v-0.0312c-4e-3 -0.0224-0.0271-0.0401-0.0312-0.0625l-1.9062-10.75z" color="#000000" fill="#1a1a1a" stroke-linecap="round" stroke-linejoin="round" stroke-width=".75"/>
  <path id="path4809" d="m317.33 338.32c0.0119 1.3193 0.78528 2.6479 2.3125 3.5312l10.75 6.2188 33.75 19.469 10.719 6.2187c3.081 1.7678 9.218 1.7679 12.281-1e-5l61.375-35.437c1.5146-0.86695 2.2889-2.1891 2.3125-3.5l-0.0142-7.4976 3.3084 1.9005c5.1963 2.985 5.2058 7.8077 0.0215 10.813l-63.808 36.992c-5.1844 3.0056-13.541 3.0222-18.738 0.0373l-57.835-33.223c-5.1963-2.985-5.2058-7.8077-0.0215-10.813l3.5809-2.076z" color="#000000" fill="#303030" stroke-linecap="round" stroke-linejoin="round" stroke-width=".75"/>
  <path id="path4769" d="m190.76 226.76 58.303-33.661v42.52l-58.303 33.661z" fill="#1a1a1a" stroke-linejoin="bevel" stroke-width="1px"/>
  <path id="path4771" d="m265.94 193.98v21.26l-7.6715 11.516v-28.346z" fill="#1a1a1a" stroke-linejoin="bevel" stroke-width="1px"/>
  <path id="path4773" d="m249.06 193.1v42.52l52.166 30.118v-42.52l-9.2058-5.315v28.346l-33.755-19.488v-28.346z" fill="#1a1a1a" stroke-linejoin="bevel" stroke-width="1px"/>
  <path id="path4775" d="m265.94 215.24 26.083 15.059v15.945l-33.755-19.488z" fill="#1f1f1f" stroke-linejoin="bevel" stroke-width="1px"/>
  <path id="path4777" d="m242.92 187.78-61.372 35.433c-3.0784 1.7699-3.0784 5.3061 0 7.0866l10.74 6.2008 7.6699-4.4419-9.2188-5.3125 58.312-33.656 9.2188 5.3125 7.6639-4.4215-10.74-6.2008c-3.0823-1.7594-9.2126-1.7594-12.274 0zm56.769 25.689-7.6996 4.4333 9.2188 5.3125-58.281 33.656-9.2188-5.3125-7.6654 4.4301 10.74 6.2008c3.0808 1.7679 9.2111 1.7679 12.274 0l61.372-35.433c3.0769-1.7613 3.0769-5.3288 0-7.0866z" fill="#303030" stroke-linejoin="bevel" stroke-width="1px"/>
  <path id="path4779" d="m192.29 257.76 7.6715 2.6575 33.755 19.488-7.6715-2.6575z" fill="#4a4a4a" stroke-width="1px"/>
  <path id="path4781" d="m199.96 232.07v28.346l-7.6715-2.6575v-21.26z" fill="#1a1a1a" stroke-linejoin="bevel" stroke-width="1px"/>
  <path id="path4783" d="m226.05 277.25v-21.26l10.74 6.2008c3.0808 1.7679 9.2111 1.7679 12.274 0l61.372-35.433c1.537-0.87986 2.3063-2.2104 2.3077-3.5409l-9.3e-4 42.596c-0.0303 1.3048-0.79918 2.6014-2.3068 3.4644l-61.372 35.433c-3.0632 1.7679-9.1936 1.7679-12.274 0l-55.235-31.89c-1.5355-0.88811-2.3051-2.213-2.3088-3.5377l1.3e-4 -42.56c-0.0119 1.338 0.75768 2.6807 2.3087 3.5778l10.74 6.2008v21.26l33.755 19.488" fill="#1a1a1a" stroke-linejoin="bevel" stroke-width="1px"/>
  <path id="path4785" d="m319.87 254.15c0.3693 2.19-0.89631 4.4656-3.8125 6.1562l-63.812 37c-5.1844 3.0056-13.522 3.0162-18.719 0.0312l-57.844-33.219c-2.9229-1.679-4.2043-3.9335-3.8438-6.125l-1.9062 10.75c-8e-3 0.0422-0.0243 0.0828-0.0312 0.125v0.0625c-0.32734 2.1727 0.94779 4.3988 3.8438 6.0625l59.687 34.312c5.1962 2.9852 13.566 2.9745 18.75-0.0312l65.812-38.156c2.9022-1.6826 4.1644-3.9446 3.8125-6.125v-0.0312c-4e-3 -0.0224-0.0271-0.0401-0.0312-0.0625l-1.9062-10.75z" color="#000000" fill="#1a1a1a" stroke-linecap="round" stroke-linejoin="round" stroke-width=".75"/>
  <path id="path4787" d="m179.24 258.59c0.0119 1.3193 0.78528 2.6479 2.3125 3.5312l10.75 6.2188 33.75 19.469 10.719 6.2187c3.081 1.7678 9.218 1.7679 12.281-1e-5l61.375-35.437c1.5146-0.86695 2.2889-2.1891 2.3125-3.5l-0.0142-7.4976 3.3084 1.9005c5.1963 2.985 5.2058 7.8077 0.0215 10.813l-63.808 36.992c-5.1844 3.0056-13.541 3.0222-18.738 0.0373l-57.835-33.223c-5.1963-2.985-5.2058-7.8077-0.0215-10.813l3.5809-2.076z" color="#000000" fill="#303030" stroke-linecap="round" stroke-linejoin="round" stroke-width=".75"/>
  <path id="path4747" d="m52.67 306.48 58.303-33.661v42.52l-58.303 33.661z" fill="#1a1a1a" stroke-linejoin="bevel" stroke-width="1px"/>
  <path id="path4749" d="m127.85 273.71v21.26l-7.6715 11.516v-28.346z" fill="#1a1a1a" stroke-linejoin="bevel" stroke-width="1px"/>
  <path id="path4751" d="m110.97 272.82v42.52l52.166 30.118v-42.52l-9.2058-5.315v28.346l-33.755-19.488v-28.346z" fill="#1a1a1a" stroke-linejoin="bevel" stroke-width="1px"/>
  <path id="path4753" d="m127.85 294.97 26.083 15.059v15.945l-33.755-19.488z" fill="#1f1f1f" stroke-linejoin="bevel" stroke-width="1px"/>
  <path id="path4755" d="m104.84 267.51-61.372 35.433c-3.0784 1.7699-3.0784 5.3061 0 7.0866l10.74 6.2008 7.6699-4.4419-9.2188-5.3125 58.312-33.656 9.2188 5.3125 7.6639-4.4215-10.74-6.2008c-3.0823-1.7594-9.2126-1.7594-12.274 0zm56.769 25.689-7.6996 4.4333 9.2188 5.3125-58.281 33.656-9.2187-5.3125-7.6654 4.4301 10.74 6.2008c3.0808 1.7679 9.2111 1.7679 12.274 0l61.372-35.433c3.0769-1.7613 3.0769-5.3288 0-7.0866z" fill="#303030" stroke-linejoin="bevel" stroke-width="1px"/>
  <path id="path4757" d="m54.204 337.49 7.6715 2.6575 33.755 19.488-7.6715-2.6575z" fill="#4a4a4a" stroke-width="1px"/>
  <path id="path4759" d="m61.876 311.8v28.346l-7.6715-2.6575v-21.26z" fill="#1a1a1a" stroke-linejoin="bevel" stroke-width="1px"/>
  <path id="path4761" d="m87.959 356.97v-21.26l10.74 6.2008c3.0808 1.7679 9.2111 1.7679 12.274 0l61.372-35.433c1.537-0.87986 2.3063-2.2104 2.3077-3.5409l-9.3e-4 42.596c-0.0303 1.3048-0.79918 2.6014-2.3068 3.4644l-61.372 35.433c-3.0632 1.7679-9.1936 1.7679-12.274 0l-55.235-31.89c-1.5355-0.88811-2.3051-2.213-2.3088-3.5377l1.3e-4 -42.56c-0.0119 1.338 0.75768 2.6807 2.3087 3.5778l10.74 6.2008v21.26l33.755 19.488" fill="#1a1a1a" stroke-linejoin="bevel" stroke-width="1px"/>
  <path id="path4763" d="m181.78 333.88c0.3693 2.19-0.89631 4.4656-3.8125 6.1562l-63.812 37c-5.1844 3.0056-13.522 3.0162-18.719 0.0312l-57.844-33.219c-2.9229-1.679-4.2043-3.9335-3.8438-6.125l-1.9062 10.75c-8e-3 0.0422-0.0243 0.0828-0.0312 0.125v0.0625c-0.32734 2.1727 0.94779 4.3988 3.8438 6.0625l59.687 34.312c5.1961 2.9852 13.566 2.9745 18.75-0.0312l65.812-38.156c2.9022-1.6826 4.1644-3.9446 3.8125-6.125v-0.0312c-4e-3 -0.0224-0.0271-0.0401-0.0312-0.0625l-1.9062-10.75z" color="#000000" fill="#1a1a1a" stroke-linecap="round" stroke-linejoin="round" stroke-width=".75"/>
  <path id="path4765" d="m41.155 338.32c0.0119 1.3193 0.78528 2.6479 2.3125 3.5312l10.75 6.2188 33.75 19.469 10.719 6.2187c3.081 1.7678 9.218 1.7679 12.281-1e-5l61.375-35.437c1.5146-0.86695 2.2889-2.1891 2.3125-3.5l-0.0142-7.4976 3.3084 1.9005c5.1963 2.985 5.2058 7.8077 0.0215 10.813l-63.808 36.992c-5.1844 3.0056-13.541 3.0222-18.738 0.0373l-57.835-33.223c-5.1963-2.985-5.2058-7.8077-0.0215-10.813l3.5809-2.076z" color="#000000" fill="#303030" stroke-linecap="round" stroke-linejoin="round" stroke-width=".75"/>
 </g>
 <g id="layer8" transform="translate(-.0038322 45.884)">
  <text id="text4016" x="548.79999" y="68.505699" fill="#000000" font-family="sans-serif" font-size="20px" letter-spacing="0px" word-spacing="0px" style="line-height:0%" xml:space="preserve"><tspan id="tspan4018" x="548.79999" y="68.505699" font-weight="bold" style="line-height:1.25">Keycap</tspan><tspan id="tspan4022" x="548.79999" y="93.505699" style="line-height:1.25">Typically integrated mount</tspan><tspan id="tspan5224" x="548.79999" y="118.5057" style="line-height:1.25">(slider is part of the keycap itself)</tspan></text>
  <g id="use5076" transform="matrix(1.0268 0 0 1.0268 -23.177 -115.14)">
   <path id="path5179" d="m218.5 266.38 4.4829-2.5882v-29.333l-4.4829 2.5882z" fill="#333" stroke="#000" stroke-linecap="round" stroke-linejoin="bevel" stroke-width=".97393px"/>
   <path id="use5181" d="m251.38 250.84-4.5044 2.587v17.287l-4.474 4.2914 4.474 7.761 2.9826-1.7044 1.5218-0.88262v-13.787z" fill="#333" stroke="#000" stroke-linecap="round" stroke-linejoin="bevel" stroke-width=".97393px"/>
   <path id="use5162" d="m221.48 256.03v-34.509l-2.9886-1.7255v46.587l-8.9657-5.1764v-56.94l49.312 28.47v56.94l-8.9657-5.1764v-46.587l-2.9886-1.7255-1e-5 34.509z" stroke="#000" stroke-linejoin="round" stroke-width=".97393px"/>
   <path id="path5168" d="m221.48 268.11-4.4829-7.7646 4.4829-4.3136z" fill="none" stroke="#000" stroke-linecap="round" stroke-linejoin="bevel" stroke-width=".97393px"/>
   <path id="path5170" d="m221.48 256.03 25.403 14.666-4.4829 4.3136-25.403-14.666z" fill="#333" stroke="#000" stroke-linecap="round" stroke-linejoin="bevel" stroke-width=".97393px"/>
   <path id="path5172" d="m217 260.34 4.4829 7.7646 25.403 14.666-4.4829-7.7646z" stroke="#000" stroke-linecap="round" stroke-linejoin="round" stroke-width=".97393px"/>
   <path id="path5177" d="m258.84 289.68v-56.94l70.232-40.548v56.94z" stroke="#000" stroke-linecap="round" stroke-linejoin="round" stroke-width=".97393px"/>
   <g id="g5110" transform="matrix(1.3527 0 0 1.3531 -318.27 -588.74)">
    <path id="path5112" d="m424.85 487.14c-16.783 13.867-37.448 25.807-53.945 31.339-5.1337 1.4597-5.2943 4.6203-6.1908 7.6304l-15.168 57.894c-1.3994 3.3552 1.1986 4.8552 3.7967 6.3552l81.931 47.307c5.5114 3.1165 9.6069 1.5048 13.557-0.41735l81.302-46.958c3.4589-1.7348 4.2563-3.1406 3.2607-5.066l-31.984-56.341c-1.6469-3.3759-3.2398-4.9036-6.4139-6.7359l-61.408-35.45c-3.8415-2.0764-6.5352-1.7408-8.7383 0.44242z" stroke="#000" stroke-linejoin="round" stroke-width=".71987px"/>
    <path id="path5114" d="m425.29 486.69c-4.2344 3.685-9.1391 7.4695-15.295 11.599-11.849 7.9485-22.31 13.899-37.883 19.775-5.1679 1.9498-2.8906 3.5616 6.6228 8.972l54.004 30.713c7.0656 4.0183 18.892-3.0226 25.935-5.98 11.761-4.9384 29.885-17.688 36.314-23.903 3.5066-3.3899-0.66751-6.0624-5.6288-8.926l-56.832-32.802c-1.2092-0.69792-4.7476-1.6141-7.2369 0.55219z" fill="url(#linearGradient5144)" stroke="#000" stroke-width=".71987"/>
    <path id="path5116" d="m496.26 529.77c-16.758 14.009-34.563 24.655-54.325 31.053-2.1738 0.87667-3.22 2.3288-3.0993 5.2712l4.3124 65.784c0.33024 4.2564 3.6386 4.0171 5.5211 3.1484l80.657-46.561c1.9581-1.1303 2.1252-2.4068 1.501-3.6504l-31.18-54.94c-1.3166-1.6687-2.7939-0.60642-3.3877-0.10642z" fill="#212121"/>
    <path id="path5118" d="m414.68 522.62c-2.0654 1.1994-4.603 2.5319-6.9293 3.4647l-1.3353 0.54136 1.1188 0.90225c4.1511 3.4511 8.2912 6.1819 12.776 9.4196l1.588-0.97444c-4.1483-2.9948-8.463-5.9805-12.198-8.9865 2.2551-1.0018 4.5706-2.1415 6.4241-3.212-0.48521-0.38431-0.95876-0.75315-1.4436-1.1549z" color="#000000" fill="#fff" style="text-decoration-line:none;text-indent:0;text-transform:none"/>
    <path id="path5120" d="m419.81 526.55c-2.39 1.2635-4.904 2.4271-7.5429 3.4286l0.61354 1.6241c2.9674-1.1262 5.8129-2.4436 8.4812-3.8978-0.51811-0.37016-1.0385-0.78073-1.5519-1.1549z" color="#000000" fill="#fff" style="text-decoration-line:none;text-indent:0;text-transform:none"/>
    <path id="path5122" d="m421.54 518.7c-0.733 0.50108-1.6009 1.078-2.2813 1.4775l0.55075 1.6374c0.55015-0.29118 1.3374-0.74459 1.6944-0.98558 4.1747 3.2863 7.8968 5.9704 12.174 8.9777l1.6485-0.95816c-4.4443-3.1251-8.9056-6.2766-13.245-9.7158z" color="#000000" fill="#fff" style="text-decoration-line:none;text-indent:0;text-transform:none"/>
   </g>
  </g>
  <path id="path5186" d="m543.44 61.862h-155.75" fill="none" stroke="#000"/>
  <text id="text5200" x="548.79999" y="179.50571" fill="#000000" font-family="sans-serif" letter-spacing="0px" word-spacing="0px" style="line-height:0%" xml:space="preserve"><tspan id="tspan5206" x="548.79999" y="179.50571" font-family="sans-serif" font-size="20px" style="line-height:1.25">Integrated slider</tspan></text>
  <path id="path5210" d="m543.44 173.86h-261.12" fill="none" stroke="#000"/>
 </g>
</svg>
