<svg xmlns="http://www.w3.org/2000/svg" viewBox="0 0 128 128"><defs><style>.cls-1{isolation:isolate;}.cls-2{mix-blend-mode:multiply;}.cls-3{fill:#e05951;}.cls-4{fill:#093357;}.cls-5{fill:#489de3;}</style></defs><title>keyboard</title><g class="cls-1"><g id="icons" class="cls-2"><rect class="cls-3" x="16" y="64" width="96" height="48" rx="4" ry="4"/><rect class="cls-4" x="24" y="96" width="14" height="8"/><rect class="cls-4" x="72" y="96" width="8" height="8"/><rect class="cls-4" x="84" y="96" width="8" height="8"/><rect class="cls-4" x="84" y="84" width="8" height="8"/><rect class="cls-4" x="96" y="96" width="8" height="8"/><rect class="cls-4" x="84" y="72" width="8" height="8"/><rect class="cls-4" x="96" y="72" width="8" height="8"/><rect class="cls-4" x="72" y="72" width="8" height="8"/><rect class="cls-4" x="36" y="72" width="8" height="8"/><rect class="cls-4" x="48" y="72" width="8" height="8"/><rect class="cls-4" x="60" y="72" width="8" height="8"/><rect class="cls-4" x="24" y="72" width="8" height="8"/><rect class="cls-4" x="36" y="84" width="8" height="8"/><rect class="cls-4" x="48" y="84" width="8" height="8"/><rect class="cls-4" x="60" y="84" width="8" height="8"/><rect class="cls-4" x="24" y="84" width="8" height="8"/><rect class="cls-4" x="42" y="96" width="26" height="8"/><path class="cls-5" d="M65,64c-5.4-7.35-7.69-12.78-6.8-16.12.84-3.18,4.65-4.82,9.06-6.73,7.52-3.25,17.82-7.7,12.63-23.77a2,2,0,1,0-3.81,1.23c4.07,12.61-2.64,15.51-10.41,18.87-4.91,2.12-10,4.32-11.34,9.37C53.22,51.1,55.05,56.6,60.1,64Z"/></g></g></svg>